Coordinates
version=1
nRows=26
nColumns=22
inDegrees=yes

Units are S.I. units (second, meters, Newtons, ...)
If the header above contains a line with 'inDegrees', this indicates whether rotational values are in degrees (yes) or radians (no).

endheader
time	pelvis_tilt	pelvis_list	pelvis_rotation	pelvis_tx	pelvis_ty	pelvis_tz	hip_flexion_r	hip_adduction_r	hip_rotation_r	knee_angle_r	ankle_angle_r	subtalar_angle_r	hip_flexion_l	hip_adduction_l	hip_rotation_l	knee_angle_l	ankle_angle_l	subtalar_angle_l	lumbar_extension	lumbar_bending	lumbar_rotation
      2.80000000	     -9.02034367	      3.34143310	    -53.34540923	      0.02586825	      0.88044699	     -0.62253940	     31.34457514	     11.16287505	     -2.14252154	    -60.23034409	      9.01657593	     16.96631077	      9.91867306	    -14.67246551	    -18.36634215	    -19.49283509	     14.47054784	     10.78244529	     -5.27740126	      3.87826788	      0.49364655
      2.81000000	     -9.02080097	      3.39013613	    -54.19363529	      0.02977687	      0.88020123	     -0.61911033	     31.82748124	     11.33556166	     -2.48699456	    -58.71478689	      9.36432822	     16.70456041	      9.20434888	    -14.59851556	    -19.20841649	    -19.38045748	     14.83935891	     10.80416015	     -5.34212485	      3.86891033	      0.30266977
      2.82000000	     -8.99903880	      3.45058111	    -55.02596794	      0.03368938	      0.87983802	     -0.61566247	     32.24827573	     11.37622789	     -2.80233314	    -57.07289485	      9.65213720	     16.03649052	      8.50517649	    -14.48485645	    -20.02748303	    -19.29268504	     15.22350691	     10.81275009	     -5.40622817	      3.85362384	      0.12667151
      2.83000000	     -8.96134596	      3.52320911	    -55.83199252	      0.03763406	      0.87937865	     -0.61221475	     32.60027359	     11.30131470	     -3.07073818	    -55.28360551	      9.87471943	     15.09679201	      7.82784959	    -14.33015004	    -20.80398916	    -19.22114818	     15.60967813	     10.79965301	     -5.46435985	      3.84616051	     -0.07758457
      2.84000000	     -8.90885761	      3.57487717	    -56.62622557	      0.04160905	      0.87889461	     -0.60869298	     32.84250893	     11.14461025	     -3.30649165	    -53.32758148	     10.00696268	     14.01423193	      7.11350322	    -14.15378130	    -21.56938392	    -19.12033598	     15.97462230	     10.75689924	     -5.54276973	      3.85959184	     -0.25447645
      2.85000000	     -8.84184614	      3.64836066	    -57.35455927	      0.04565329	      0.87829640	     -0.60516667	     33.02037938	     10.87255555	     -3.54525433	    -51.21899497	     10.17090057	     12.59491351	      6.44567058	    -13.92728217	    -22.24066395	    -19.03729094	     16.36462509	     10.71205077	     -5.59910835	      3.86894832	     -0.49790097
      2.86000000	     -8.76619794	      3.70060404	    -58.06433471	      0.04975430	      0.87768557	     -0.60152821	     33.08865354	     10.54087007	     -3.79238562	    -48.93728816	     10.22192088	     11.12497125	      5.72981832	    -13.67940896	    -22.91150034	    -18.89500889	     16.72036570	     10.64367570	     -5.66830824	      3.90354107	     -0.71072676
      2.87000000	     -8.68054145	      3.76316252	    -58.72929089	      0.05389334	      0.87699005	     -0.59781031	     33.08500435	     10.14143525	     -4.06057107	    -46.50183660	     10.23930087	      9.50351883	      5.03126374	    -13.40096003	    -23.55431580	    -18.74897132	     17.07628610	     10.57090459	     -5.72195238	      3.93788137	     -0.94046577
      2.88000000	     -8.58048428	      3.82525637	    -59.35110245	      0.05807561	      0.87623241	     -0.59397983	     33.00235589	      9.68283214	     -4.38557251	    -43.92420271	     10.19967300	      7.81613285	      4.31961387	    -13.09155193	    -24.18019757	    -18.56708197	     17.41907136	     10.49860425	     -5.77200204	      3.97215626	     -1.17007666
      2.89000000	     -8.48364940	      3.90439703	    -59.92555092	      0.06227479	      0.87538306	     -0.59002281	     32.87350177	      9.18984291	     -4.77707724	    -41.21482817	     10.07349956	      6.11771623	      3.62156707	    -12.76187706	    -24.78955961	    -18.34824076	     17.72975753	     10.43742174	     -5.78931853	      4.01054629	     -1.39514595
      2.90000000	     -8.35993272	      3.97789760	    -60.43995585	      0.06650071	      0.87448722	     -0.58594790	     32.66568978	      8.65780557	     -5.23163560	    -38.39016353	      9.90719909	      4.53691373	      2.90551005	    -12.39700987	    -25.34576040	    -18.09653656	     18.04318850	     10.39753159	     -5.81686833	      4.03527057	     -1.63380911
      2.91000000	     -8.24288918	      4.08435922	    -60.89084188	      0.07069923	      0.87348872	     -0.58175173	     32.45541794	      8.10455680	     -5.78904068	    -35.48556224	      9.61757780	      3.05533315	      2.22995723	    -12.01885922	    -25.87481408	    -17.81547777	     18.28149336	     10.39701655	     -5.79723459	      4.05064151	     -1.87866487
      2.92000000	     -8.11710972	      4.20171173	    -61.27822547	      0.07487511	      0.87242460	     -0.57742845	     32.20781196	      7.55081934	     -6.39301231	    -32.50470956	      9.27278890	      1.86017659	      1.57368821	    -11.63030401	    -26.35618312	    -17.52798756	     18.50820933	     10.44157758	     -5.76134707	      4.05610202	     -2.13735292
      2.93000000	     -7.99314151	      4.31928145	    -61.59786402	      0.07902468	      0.87131455	     -0.57297106	     31.91871988	      7.01864733	     -7.02861684	    -29.45801714	      8.86691603	      1.09695603	      0.93937297	    -11.25518273	    -26.78928956	    -17.25281552	     18.72168916	     10.51989469	     -5.71371002	      4.06652169	     -2.41103642
      2.94000000	     -7.87749326	      4.49236282	    -61.86823178	      0.08307878	      0.87009294	     -0.56836046	     31.66870067	      6.50564702	     -7.66232594	    -26.40157380	      8.37052032	      0.59435901	      0.37101018	    -10.87320569	    -27.17941081	    -16.97334147	     18.87001015	     10.66492678	     -5.59487823	      4.04911838	     -2.67303475
      2.95000000	     -7.77108692	      4.71153921	    -62.09483621	      0.08707587	      0.86877598	     -0.56357385	     31.45028098	      6.01927684	     -8.26446243	    -23.35955400	      7.79310270	      0.46286449	     -0.14476992	    -10.49069728	    -27.53742864	    -16.69258950	     18.96399029	     10.83539654	     -5.40764142	      4.01764147	     -2.92740294
      2.96000000	     -7.64489762	      4.91919259	    -62.27557435	      0.09099956	      0.86745330	     -0.55860556	     31.17365543	      5.56909931	     -8.76346494	    -20.31876815	      7.22777629	      0.66590599	     -0.65336571	    -10.12455270	    -27.83738717	    -16.46309852	     19.06331970	     11.13598900	     -5.23106056	      3.96626312	     -3.16727494
      2.97000000	     -7.51526608	      5.15577416	    -62.42502693	      0.09488015	      0.86606557	     -0.55342270	     30.91125501	      5.13691799	     -9.18615107	    -17.35459645	      6.60005697	      1.32951288	     -1.13616418	     -9.75826077	    -28.10213579	    -16.23878274	     19.10911636	     11.49185310	     -5.00657088	      3.89657101	     -3.39031436
      2.98000000	     -7.36146144	      5.42945239	    -62.55084392	      0.09872451	      0.86460215	     -0.54802784	     30.67568902	      4.69379206	     -9.51464000	    -14.53097960	      5.94815241	      2.42386410	     -1.59237232	     -9.36723653	    -28.31079728	    -16.02737134	     19.11340824	     11.89503358	     -4.73694244	      3.78136487	     -3.58720619
      2.99000000	     -7.17300052	      5.76402412	    -62.65640720	      0.10253664	      0.86301985	     -0.54242813	     30.52032705	      4.20576357	     -9.78053288	    -11.94901787	      5.28921829	      3.86496159	     -2.00979051	     -8.92442921	    -28.44326332	    -15.81602360	     19.08331949	     12.33544262	     -4.40172297	      3.59844049	     -3.76374552
      3.00000000	     -6.97070399	      6.05534520	    -62.75480826	      0.10631651	      0.86145169	     -0.53653760	     30.32618905	      3.74761332	    -10.00652381	     -9.60072902	      4.64442577	      5.37638714	     -2.46840949	     -8.51866815	    -28.55689470	    -15.64993788	     19.02363969	     12.75811386	     -4.09604069	      3.42145369	     -3.90442362
      3.01000000	     -6.74570513	      6.38412529	    -62.84766988	      0.11006583	      0.85978770	     -0.53041543	     30.23846808	      3.25587154	    -10.23827304	     -7.65903105	      4.02774249	      7.01907809	     -2.90502628	     -8.08420473	    -28.59400406	    -15.49356442	     18.94121599	     13.21653829	     -3.74328364	      3.20132218	     -4.02168980
      3.02000000	     -6.52683739	      6.68995351	    -62.95215992	      0.11375552	      0.85811336	     -0.52400150	     30.21397235	      2.79432076	    -10.50933179	     -6.16757240	      3.43722183	      8.55951246	     -3.36659931	     -7.68479108	    -28.58859535	    -15.35676725	     18.82129408	     13.67019943	     -3.39072915	      2.99576411	     -4.09222164
      3.03000000	     -6.32595474	      6.96723227	    -63.05574831	      0.11736693	      0.85643411	     -0.51734878	     30.25467531	      2.37007789	    -10.80538065	     -5.15689845	      2.93274384	      9.93948595	     -3.81798135	     -7.34786883	    -28.51912389	    -15.30250593	     18.71344474	     14.13157184	     -3.04717884	      2.82093596	     -4.14103713
      3.04000000	     -6.16643614	      7.18483038	    -63.18113455	      0.12086010	      0.85481256	     -0.51039175	     30.35083453	      2.03149356	    -11.16162186	     -4.65906732	      2.42262375	     10.95385572	     -4.29635334	     -7.10819009	    -28.42193863	    -15.31038254	     18.60691270	     14.57569257	     -2.72935747	      2.71159950	     -4.14227724
      3.05000000	     -6.06828410	      7.33010871	    -63.32416001	      0.12423212	      0.85329521	     -0.50313516	     30.46687631	      1.80672154	    -11.53530264	     -4.60885161	      1.89924912	     11.50338030	     -4.80073679	     -6.98884345	    -28.29482712	    -15.38110669	     18.47057126	     15.01221805	     -2.44379781	      2.69934567	     -4.12032784
